<svg width="16" height="9" viewBox="0 0 16 9" fill="none" xmlns="http://www.w3.org/2000/svg">
<path d="M15.7072 0.293214C15.5197 0.105742 15.2654 0.000427246 15.0002 0.000427246C14.735 0.000427246 14.4807 0.105742 14.2932 0.293214L8.00021 6.58621L1.70721 0.293214C1.51861 0.111055 1.26601 0.0102615 1.00381 0.0125399C0.741616 0.0148182 0.490803 0.119987 0.305395 0.305395C0.119987 0.490803 0.0148172 0.741616 0.0125389 1.00381C0.0102606 1.26601 0.111054 1.51861 0.293213 1.70721L7.29321 8.70721C7.48074 8.89468 7.73505 9 8.00021 9C8.26538 9 8.51969 8.89468 8.70721 8.70721L15.7072 1.70721C15.8947 1.51969 16 1.26538 16 1.00021C16 0.735049 15.8947 0.480742 15.7072 0.293214Z" fill="#212229"/>
</svg>
