<svg width="36" height="36" viewBox="0 0 36 36" fill="none" xmlns="http://www.w3.org/2000/svg">
<path d="M18 0C27.9433 0 36 8.05887 36 18L35.9943 18.4576C35.7516 28.1893 27.7882 36 18 36L17.5424 35.9943C7.8107 35.7516 0 27.7882 0 18L0.00569979 17.5424C0.248411 7.8107 8.21181 0 18 0ZM27.4377 11.4978C26.8661 10.9481 25.9381 10.9442 25.3682 11.4921L15 21.4615L10.6412 17.2704C10.0604 16.7119 9.13541 16.716 8.5623 17.267L8.5377 17.2907C7.96606 17.8403 7.9669 18.7374 8.54284 19.2912L13.9572 24.4973C14.5308 25.0489 15.4642 25.0536 16.0369 24.503L27.4631 13.5163C28.0353 12.9661 28.0354 12.0725 27.4623 11.5214L27.4377 11.4978Z" fill="#C4C4C4"/>
</svg>
