<svg width="80" height="80" viewBox="0 0 80 80" fill="none" xmlns="http://www.w3.org/2000/svg">
<rect width="80" height="80" rx="20" fill="#F3F3F3"/>
<g clip-path="url(#clip0_593_944)">
<path d="M22.3428 9.375H25.0942V12.1025H27.6304V9.375H30.3818V17.6294H27.6304V14.8779H25.1182V17.6294H22.3428M34.0186 12.1265H31.5901V9.375H39.2104V12.1265H36.77V17.6294H34.0186M40.4187 9.375H43.3018L45.0723 12.282L46.8428 9.375H49.7258V17.6294H46.9744V13.5381L45.0483 16.5049L43.1223 13.5381V17.6294H40.4187M51.0896 9.375H53.8411V14.9019H57.741V17.6294H51.0896" fill="black"/>
<path d="M22.2471 65.7202L18.2993 21.4097H61.7007L57.7529 65.6963L39.9641 70.625" fill="#E44D26"/>
<path d="M40 66.8567V25.0464H57.741L54.3555 62.8491" fill="#F16529"/>
<path d="M26.3623 30.4658H40V35.897H32.3198L32.8223 41.4597H40V46.8789H27.8457M28.085 49.6064H33.54L33.9229 53.949L40 55.5759V61.2463L28.8506 58.136" fill="#EBEBEB"/>
<path d="M53.5898 30.4658H39.9761V35.897H53.0874M52.5969 41.4597H39.9761V46.8909H46.6753L46.0413 53.949L39.9761 55.5759V61.2224L51.1016 58.136" fill="white"/>
</g>
<defs>
<clipPath id="clip0_593_944">
<rect width="61.25" height="61.25" fill="white" transform="translate(9.375 9.375)"/>
</clipPath>
</defs>
</svg>
