<svg width="80" height="80" viewBox="0 0 80 80" fill="none" xmlns="http://www.w3.org/2000/svg">
<rect width="80" height="80" rx="20" fill="#F0DB4F"/>
<rect x="9.375" y="9.375" width="61.25" height="61.25" rx="4" fill="#F0DB4F"/>
<path fillRule="evenodd" clipRule="evenodd" d="M54.9885 36.9642C52.7681 37.1611 50.9654 37.9411 49.6026 39.2947C48.1837 40.7039 47.5107 42.4056 47.5101 44.5855C47.5092 47.8315 48.8461 50.1005 51.8183 51.8972C52.5383 52.3324 53.7109 52.8996 55.1952 53.5307C58.9004 55.1061 59.764 55.7708 59.9662 57.2026C60.0842 58.038 59.8418 58.7621 59.2459 59.3542C58.5496 60.046 57.6794 60.3618 56.3306 60.4122C53.9605 60.5006 52.2255 59.5813 50.7863 57.4746C50.6059 57.2104 50.4386 56.9943 50.4147 56.9943C50.3575 56.9943 45.9305 59.5502 45.8368 59.6373C45.7805 59.6896 45.8272 59.809 46.052 60.1869C47.8233 63.165 50.584 64.9086 54.3284 65.4142C55.1855 65.5299 57.1148 65.5447 57.9026 65.4416C59.7377 65.2013 61.2906 64.661 62.537 63.829C63.1999 63.3864 64.0537 62.5323 64.4938 61.8711C65.3457 60.5914 65.7335 59.22 65.7335 57.487C65.7335 56.0209 65.4961 54.8886 64.9526 53.7629C64.5827 52.9968 64.2095 52.4744 63.5666 51.8228C62.3381 50.5779 60.7727 49.6505 57.5532 48.2604C55.1331 47.2154 54.3717 46.7995 53.8419 46.233C53.3368 45.6931 53.1203 45.0578 53.171 44.2645C53.2109 43.6395 53.3849 43.2127 53.7691 42.7978C54.3246 42.1978 54.9648 41.9501 55.9521 41.9534C57.0738 41.9571 57.8011 42.248 58.5452 42.9906C58.8026 43.2474 59.1418 43.6615 59.2989 43.9107C59.4802 44.1981 59.613 44.3529 59.6622 44.334C59.8145 44.2755 64.0449 41.5354 64.045 41.4952C64.045 41.4726 63.8376 41.1438 63.5841 40.7645C62.1514 38.6213 60.2565 37.4215 57.7279 37.0571C56.9792 36.9491 55.662 36.9045 54.9885 36.9642ZM36.8979 47.5186C36.8805 57.1455 36.8729 57.8071 36.775 58.2146C36.4809 59.4386 35.8706 60.0883 34.8074 60.309C34.626 60.3467 34.2002 60.3779 33.8613 60.3785C32.3637 60.3808 31.4746 59.7576 30.4328 57.9752C30.2671 57.6917 30.1142 57.4663 30.093 57.4744C30.0719 57.4825 29.0193 58.1163 27.7539 58.8829L25.4531 60.2766L25.6488 60.6651C26.5404 62.4357 28.0897 63.9232 29.847 64.6958C32.2701 65.7612 35.6534 65.8107 38.0711 64.8163C40.4655 63.8314 41.8967 61.9556 42.4842 59.0321C42.5754 58.5783 42.5853 57.652 42.6028 47.897L42.6219 37.2569H39.7692H36.9165L36.8979 47.5186Z" fill="#323330"/>
</svg>
