<svg width="80" height="80" viewBox="0 0 80 80" fill="none" xmlns="http://www.w3.org/2000/svg">
<rect width="80" height="80" rx="20" fill="#E9EFFF"/>
<path d="M31.7988 56.7432C31.7988 56.7432 29.4582 58.1043 33.4645 58.5649C38.3181 59.1186 40.7988 59.0392 46.1475 58.0269C46.1475 58.0269 47.5537 58.9086 49.5176 59.6723C37.5272 64.8112 22.381 59.3747 31.7988 56.7432Z" fill="#5382A1"/>
<path d="M30.3332 50.0371C30.3332 50.0371 27.7079 51.9804 31.7173 52.3951C36.902 52.93 40.9966 52.9737 48.0817 51.6094C48.0817 51.6094 49.0616 52.6029 50.6026 53.1462C36.1055 57.3854 19.9583 53.4805 30.3332 50.0371Z" fill="#5382A1"/>
<path d="M42.6849 38.6619C45.6394 42.0634 41.9087 45.1243 41.9087 45.1243C41.9087 45.1243 49.4105 41.2516 45.9652 36.4021C42.7475 31.8797 40.2799 29.6327 53.6384 21.8853C53.6384 21.8853 32.67 27.1222 42.6849 38.6619Z" fill="#E76F00"/>
<path d="M58.5434 61.7031C58.5434 61.7031 60.2755 63.1303 56.6358 64.2344C49.7148 66.331 27.8298 66.9641 21.7503 64.3179C19.5648 63.3672 23.6631 62.0478 24.9523 61.771C26.2968 61.4794 27.0651 61.5337 27.0651 61.5337C24.6347 59.8216 11.3558 64.8956 20.3201 66.3487C44.7671 70.3133 64.8846 64.5634 58.5434 61.7031Z" fill="#5382A1"/>
<path d="M32.9242 43.0891C32.9242 43.0891 21.7921 45.7331 28.982 46.6933C32.0178 47.0997 38.0696 47.0078 43.7067 46.5355C48.3137 46.1468 52.9396 45.3206 52.9396 45.3206C52.9396 45.3206 51.3152 46.0163 50.1399 46.8187C38.8355 49.7918 16.9974 48.4087 23.2843 45.3676C28.6012 42.7975 32.9242 43.0891 32.9242 43.0891Z" fill="#5382A1"/>
<path d="M52.8936 54.2511C64.385 48.2797 59.0718 42.5412 55.3633 43.3143C54.4543 43.5035 54.049 43.6674 54.049 43.6674C54.049 43.6674 54.3864 43.1388 55.031 42.91C62.3677 40.3307 68.01 50.5175 52.6626 54.5521C52.6626 54.5522 52.8404 54.3932 52.8936 54.2511Z" fill="#5382A1"/>
<path d="M45.9656 9.375C45.9656 9.375 52.3298 15.7413 39.9295 25.5309C29.9857 33.3838 37.662 37.8613 39.9254 42.9771C34.121 37.7402 29.8614 33.1301 32.7191 28.8394C36.9135 22.5411 48.5334 19.4875 45.9656 9.375Z" fill="#E76F00"/>
<path d="M34.0534 70.4323C45.0838 71.1384 62.0222 70.0406 62.4234 64.8213C62.4234 64.8213 61.6522 66.7999 53.3074 68.3712C43.8927 70.1429 32.281 69.9361 25.394 68.8006C25.3942 68.8004 26.8039 69.9674 34.0534 70.4323Z" fill="#5382A1"/>
</svg>
