<svg width="9" height="16" viewBox="0 0 9 16" fill="none" xmlns="http://www.w3.org/2000/svg">
<path d="M0.293214 0.292787C0.105742 0.480314 0.000427246 0.734622 0.000427246 0.999786C0.000427246 1.26495 0.105742 1.51926 0.293214 1.70679L6.58621 7.99979L0.293214 14.2928C0.111055 14.4814 0.0102615 14.734 0.0125399 14.9962C0.0148182 15.2584 0.119987 15.5092 0.305395 15.6946C0.490803 15.88 0.741616 15.9852 1.00381 15.9875C1.26601 15.9897 1.51861 15.8889 1.70721 15.7068L8.70721 8.70679C8.89468 8.51926 9 8.26495 9 7.99979C9 7.73462 8.89468 7.48031 8.70721 7.29279L1.70721 0.292787C1.51969 0.105316 1.26538 0 1.00021 0C0.735049 0 0.480742 0.105316 0.293214 0.292787Z" fill="#212229"/>
</svg>
