<svg width="80" height="80" viewBox="0 0 80 80" fill="none" xmlns="http://www.w3.org/2000/svg">
<rect width="80" height="80" rx="20" fill="#F3F3F3"/>
<path d="M39.6353 9.02541C37.1097 9.03714 34.6978 9.25254 32.5756 9.62807C26.3238 10.7325 25.1887 13.0443 25.1887 17.3076V22.9382H39.9624V24.815H25.1887H19.6443C15.3506 24.815 11.591 27.3958 10.415 32.3052C9.05857 37.9325 8.9984 41.4441 10.415 47.32C11.4652 51.6937 13.9731 54.8101 18.2668 54.8101H23.3463V48.0604C23.3463 43.1841 27.5654 38.8828 32.5756 38.8828H47.3321C51.4398 38.8828 54.7189 35.5006 54.7189 31.3754V17.3076C54.7189 13.3039 51.3413 10.2963 47.3321 9.62807C44.7942 9.2056 42.1609 9.01367 39.6353 9.02541ZM31.6458 13.5539C33.1718 13.5539 34.418 14.8205 34.418 16.3778C34.418 17.9296 33.1718 19.1845 31.6458 19.1845C30.1143 19.1845 28.8736 17.9296 28.8736 16.3778C28.8736 14.8205 30.1143 13.5539 31.6458 13.5539Z" fill="url(#paint0_linear_593_924)"/>
<path d="M56.5613 24.8149V31.3753C56.5613 36.4614 52.2492 40.7423 47.3321 40.7423H32.5756C28.5335 40.7423 25.1887 44.2018 25.1887 48.2497V62.3174C25.1887 66.3212 28.6703 68.6762 32.5756 69.8248C37.2521 71.1999 41.7366 71.4484 47.3321 69.8248C51.0514 68.7479 54.7189 66.5807 54.7189 62.3174V56.6869H39.9624V54.81H54.7189H62.1058C66.3994 54.81 67.9994 51.8151 69.4926 47.3199C71.035 42.6921 70.9694 38.2417 69.4926 32.3051C68.4315 28.0308 66.4049 24.8149 62.1058 24.8149H56.5613ZM48.2619 60.4406C49.7934 60.4406 51.0341 61.6954 51.0341 63.2472C51.0341 64.8046 49.7934 66.0711 48.2619 66.0711C46.7358 66.0711 45.4897 64.8046 45.4897 63.2472C45.4897 61.6954 46.7358 60.4406 48.2619 60.4406Z" fill="url(#paint1_linear_593_924)"/>
<defs>
<linearGradient id="paint0_linear_593_924" x1="9.375" y1="9.0249" x2="43.4415" y2="38.0543" gradientUnits="userSpaceOnUse">
<stop stop-color="#5A9FD4"/>
<stop offset="1" stop-color="#306998"/>
</linearGradient>
<linearGradient id="paint1_linear_593_924" x1="47.9068" y1="62.7739" x2="35.6851" y2="45.6475" gradientUnits="userSpaceOnUse">
<stop stop-color="#FFD43B"/>
<stop offset="1" stop-color="#FFE873"/>
</linearGradient>
</defs>
</svg>
