<svg width="200" height="200" viewBox="0 0 200 200" fill="none" xmlns="http://www.w3.org/2000/svg">
<rect width="200" height="200" rx="30" fill="#F3F3F3"/>
<path d="M165.734 103.333C160.913 97.6564 154.078 94.0715 146.667 93.3332C146.667 80.3332 142.134 69.3332 133.067 60.2665C124 51.1998 113 46.6665 100 46.6665C89.467 46.6665 80.0003 49.7998 71.667 56.1998C63.3337 62.5998 57.8003 70.7998 55.0003 80.9998C46.667 82.8665 39.7337 87.1998 34.467 93.9998C29.2003 100.8 26.667 108.533 26.667 117.2C26.667 127.267 30.267 135.867 37.4003 142.867C44.6003 150 53.3337 153.333 63.3337 153.333H143.334C151.667 153.333 158.734 150.4 164.6 144.6C170.4 138.733 173.334 131.667 173.334 123.333C173.334 115.667 170.8 109 165.734 103.333ZM90.0003 127.867L80.6003 137.333L50.0003 106.667L80.6003 75.9998L90.0003 85.4665L68.8003 106.667L90.0003 127.867ZM119.4 137.333L110 127.867L131.2 106.667L110 85.4665L119.4 75.9998L150 106.667L119.4 137.333Z" fill="#DBDBDB"/>
</svg>
